# xmcd
#
# Track frame offsets: 
#        150
#        20808
#        39435
#        58246
#        76379
#        96402
#        119567
#        139397
#        158981
#        178388
#        198086
#        214754
#        243134
#        261297
#        282371
#        308706
#        330818
#
# Disc length: 4774 seconds
#
# Revision: 3
# Processed by: cddbd v1.5.2PL0 Copyright (c) Steve Scherf et al.
# Submitted via: ExactAudioCopyFreeDBPlugin 1.0
#
DISCID=fb12a411
DTITLE=Various Artist - Akella Presents - vol.93 - Blues-Rock   CD2
DYEAR=2016
DGENRE=Blues
TTITLE0=Gary Hoey - This Time Tomorrow
TTITLE1=Cold Truth - Pocket Full Of Pearls
TTITLE2=Poul Halberg Powertrio - Power Of Love
TTITLE3=The Charles Hyde Band - Miss Trouble
TTITLE4=Ash Grunwald - Second Guess
TTITLE5=Rick Brannon  and Electric Detective - Easy on the Eyes
TTITLE6=Dean Hall - Waitin' By The Raiload
TTITLE7=Royal Southern Brotherhood - Land Of Broken Hearts
TTITLE8=Greg Golden Band - Back To Reno
TTITLE9=Bridget Kelly Band - Texas Tea
TTITLE10=Too Slim and the Taildraggers - Good Guys Win
TTITLE11=The Apocalypse Blues Revue - When the Music's Over
TTITLE12=Dudley Taft - Lonesome Memphis Blues
TTITLE13=The Nimmo Brothers - Waiting for My Heart to Fall
TTITLE14=Ryan Reid - Too Far Gone
TTITLE15=Gentlemen's Blues Club - Superstition
TTITLE16=Smokin Joe Kubek and Bnois King - You Said I Love You First
EXTD=
EXTT0=
EXTT1=
EXTT2=
EXTT3=
EXTT4=
EXTT5=
EXTT6=
EXTT7=
EXTT8=
EXTT9=
EXTT10=
EXTT11=
EXTT12=
EXTT13=
EXTT14=
EXTT15=
EXTT16=
PLAYORDER=
